<svg width="115" height="107" viewBox="0 0 115 107" fill="none" xmlns="http://www.w3.org/2000/svg">
<path d="M73.6181 28.8537V29.7968C76.1898 30.7217 76.5882 32.7801 76.5791 38.2298L76.5157 78.6813C76.5157 83.3149 80.2555 87.078 84.8827 87.0871H85.426L85.4984 38.248C85.4984 32.7257 85.8968 30.6764 88.559 29.7786V28.8809L73.6181 28.8537Z" fill="white"/>
<path d="M43.1748 41.5396C41.1374 42.3013 39.2539 43.4347 37.6331 44.8947C36.1118 46.282 34.8803 47.9596 34.011 49.8185C32.1909 54.0441 32.2724 58.8409 34.2465 63.0031C35.2787 65.0796 36.7909 66.8841 38.6382 68.2805C40.5488 69.7948 44.0713 71.9348 49.2146 74.6824C51.1976 75.707 53.1264 76.8405 54.9917 78.0556C56.4858 78.9986 57.8984 80.0686 59.2024 81.2565C60.0988 82.0273 60.8142 82.9794 61.3303 84.0494C61.7106 84.9381 61.9008 85.8992 61.9008 86.8695C61.9008 87.9758 61.6382 89.0639 61.1402 90.0432C60.615 91.0679 59.9087 91.9928 59.0575 92.7636C58.6228 93.1535 58.1429 93.5071 57.6449 93.8154C69.1902 94.2053 71.7437 84.7114 67.7957 77.8108C65.4866 73.7756 60.2437 71.0099 56.3138 68.607C54.9827 67.7999 54.7291 67.6186 53.2984 66.7571C51.8677 65.8957 50.5547 65.1158 49.3232 64.3814C48.1098 63.6469 47.0776 63.0212 46.2173 62.5134C45.3571 61.9875 44.8319 61.6701 44.6327 61.5522C43.211 60.4913 42.0248 59.1583 41.1283 57.6258C40.4039 56.3564 40.0236 54.9236 40.0055 53.4637C40.0055 52.2758 40.2681 51.1061 40.7661 50.0361C41.2823 48.9298 42.0339 47.9414 42.9484 47.1344C43.9807 46.2639 45.1669 45.5929 46.4437 45.1667C47.9378 44.6589 49.5043 44.405 51.089 44.4322C53.9142 44.3959 56.7031 45.0579 59.2024 46.3727C60.3524 46.9621 61.4299 47.6966 62.4079 48.5399C63.3134 49.3288 64.0921 50.2537 64.7169 51.2784C65.4051 52.4663 65.9484 53.7267 66.3287 55.0506C66.8449 56.7735 67.2524 58.5326 67.5331 60.3099H69.3984L69.4256 40.3426H67.5602C67.5059 41.2494 67.198 42.129 66.6638 42.8725C66.2382 43.3078 65.6496 43.5345 65.0429 43.4982C64.4362 43.4529 63.8386 43.3441 63.25 43.1627C62.426 42.9269 61.3575 42.6005 60.0445 42.2106C56.5039 41.1587 53.2622 40.2791 49.9118 40.2701C47.7567 40.2701 45.5382 40.6237 43.1657 41.5396H43.1748Z" fill="white"/>
<path d="M33.8843 11.1625L13.7457 11.1353V12.1146C14.4882 12.4138 15.122 12.7675 15.602 13.3387C16.3898 14.2999 16.7791 17.5734 16.7701 20.9375L16.7067 61.389C16.7067 64.5174 16.3807 67.945 15.7559 68.8518C15.2488 69.6044 14.5335 69.949 13.6551 70.3117V71.1822L28.1524 71.2003C27.8626 70.7469 27.6 70.2845 27.3646 69.7948C26.8303 68.7248 26.4409 67.5914 26.1965 66.4216C25.8161 64.7713 25.6532 63.0847 25.7165 61.389L25.7528 39.853L25.789 14.7533C28.1886 14.1367 30.6606 13.8375 33.1417 13.8647C35.4236 13.8375 37.6874 14.1639 39.8697 14.8258C41.6354 15.3608 43.2835 16.2314 44.7232 17.383C45.9728 18.3895 46.9689 19.6681 47.648 21.1189C49.3957 24.9092 49.0787 29.5429 45.9276 32.4174C51.3697 36.4344 54.9827 34.7478 56.4496 30.6945C58.0343 26.1153 57.0835 21.0464 53.9504 17.3558C53.0358 16.2858 51.9673 15.3427 50.7811 14.5629C49.4862 13.7377 48.0917 13.0939 46.6158 12.6496C44.8047 12.1146 42.9575 11.7337 41.0831 11.5252C38.8374 11.2713 36.5827 11.1443 34.328 11.1443C34.174 11.1443 34.0291 11.1443 33.8843 11.1443V11.1625Z" fill="white"/>
<path d="M92.498 80.7487C92.498 84.4393 95.4681 87.4317 99.1536 87.4317C102.839 87.4317 105.827 84.4575 105.827 80.7669C105.827 77.0763 102.857 74.0839 99.1717 74.0839C95.4862 74.0839 92.498 77.0581 92.489 80.7487H92.498Z" fill="#E35F27"/>
</svg>
